PathFileType	4	(X/Y/Z)	Patient4_TMGait_0pt6_02_left_40.trc.trc
DataRate	CameraRate	NumFrames	NumMarkers	Units	OrigDataRate	OrigDataStartFrame	OrigNumFrames
78.212290502793	78.212290502793	4	33	mm	78.212290502793	89	       141
Frame#	Time	Sacral			L.Shoulder			Chest			R.Shoulder			Neck			R.ASIS			L.ASIS			R.Thigh.Superior			R.Thigh.Lateral			R.Thigh.Inferior			R.Patella			L.Thigh.Superior			L.Thigh.Lateral			L.Thigh.Inferior			L.Patella			L.Shank.Superior			L.Shank.Lateral			L.Shank.Inferior			R.Shank.Superior			R.Shank.Lateral			R.Shank.Inferior			R.Heel			R.Midfoot.Superior			R.Midfoot.Lateral			R.Toe			L.Heel			L.Midfoot.Lateral			L.Midfoot.Superior			L.Toe			L.Elbow			L.Wrist			R.Elbow			R.Wrist			
		X1	Y1	Z1	X2	Y2	Z2	X3	Y3	Z3	X4	Y4	Z4	X5	Y5	Z5	X6	Y6	Z6	X7	Y7	Z7	X8	Y8	Z8	X9	Y9	Z9	X10	Y10	Z10	X11	Y11	Z11	X12	Y12	Z12	X13	Y13	Z13	X14	Y14	Z14	X15	Y15	Z15	X16	Y16	Z16	X17	Y17	Z17	X18	Y18	Z18	X19	Y19	Z19	X20	Y20	Z20	X21	Y21	Z21	X22	Y22	Z22	X23	Y23	Z23	X24	Y24	Z24	X25	Y25	Z25	X26	Y26	Z26	X27	Y27	Z27	X28	Y28	Z28	X29	Y29	Z29	X30	Y30	Z30	X31	Y31	Z31	X32	Y32	Z32	X33	Y33	Z33	

89	49.925142857143	854.238056185496	1005.489233956257	551.545495372665	1039.792260141954	1434.748155708612	364.367629948913	1144.255587475644	1359.239468256818	520.878232465134	1066.398727628375	1437.601455923569	694.769398390834	1046.172983388705	1491.626183030059	514.720569333964	1086.708909437952	938.747924863691	657.198146875132	1058.855779633158	962.480813861484	383.596482335208	1144.262790063526	748.408740726548	623.993366030496	1077.169322556880	634.191505042019	688.669767400430	1155.900161397887	588.710337210430	604.758264914165	1167.024956690706	498.867666454604	612.081246851038	1087.649260435311	738.973961121971	395.084137369981	986.362047500122	634.076453705680	331.644242117709	1069.941398245468	540.810002626754	379.142086298933	1056.702167148851	456.535732331104	373.327910256535	985.939012475863	403.612239736369	369.532051184746	843.117280921008	364.745163055363	325.568883384280	829.189126718431	234.691520570196	378.314247839695	1141.258062498678	409.299323838752	622.302630858128	1077.318465420958	303.575594801252	688.009589341673	1120.512323453155	209.567070833530	624.809418863671	992.366982164403	43.224387649642	602.236808874710	1163.718375351037	98.138051065225	630.807745314691	1078.196744548612	37.356603604882	673.799175169744	1285.727266800207	46.267656474739	654.544544017872	636.865988463732	176.210247179146	417.144502005006	692.209370354616	119.424351444693	343.895312741703	796.494288372815	125.629172596690	363.824162519728	869.624953425229	30.611242709692	353.445385549699	1001.556517793532	1093.573481915795	227.032556675697	1242.328367203805	1003.811131100094	230.263189947813	968.432618832892	1113.989675351792	834.713907921065	1036.242444063804	863.167941177401	798.970847385040	
90	49.937928571429	854.555099815215	1006.490448859284	555.177995588209	1038.676680614488	1436.081428929618	367.834884445224	1144.568901360623	1360.015074499224	523.168328370233	1068.307897594388	1437.884299455733	698.014579663892	1046.175970152707	1492.526962909935	518.416137175180	1087.302377294903	939.486916204438	659.224167311719	1058.518560295797	963.105110414714	385.808685616620	1142.335195409538	747.542962240029	627.338001070671	1073.215213288062	634.410903822471	691.398457599205	1151.501262534487	587.980739586546	607.647311331973	1161.145530136924	498.301813122781	614.783499871104	1092.720584559378	742.029358375573	397.564582880507	996.161638864885	634.626242166500	332.747478632233	1082.416041723616	543.251961800381	380.662282035483	1070.388426110321	457.755706578221	373.980625326914	997.984303406108	404.901046277813	370.310541118065	853.891048277413	370.659599398103	326.337233785685	835.881444820736	241.215029396175	379.031396545320	1135.179881548249	408.953505596782	624.512670223521	1070.611555891033	303.225204923110	689.397238934443	1113.642414264398	209.353427466164	625.953699200137	984.773088857884	43.295563121836	602.423439734357	1156.276970360832	97.990943932658	631.175457976871	1070.591295823444	37.308826713565	673.981663020252	1278.222102095336	45.619497406429	654.748389964025	642.356474854938	192.227695236575	418.397236959803	694.089977188419	132.370309594699	344.756287102982	798.893620120680	132.412611035465	364.166177449577	865.423591537984	30.059076840146	352.854920029268	997.249547412649	1094.156057121624	232.409526685681	1232.349062622472	988.239197367282	234.504893196823	978.645964693971	1112.406288781395	840.030664349964	1060.996903070452	866.946787953623	799.152144663032	
91	49.950714285714	854.581827294900	1007.380630751021	558.590155356511	1037.429825404286	1437.276264323411	371.162102077463	1144.718967265683	1360.570472897810	525.313970023461	1070.116237850355	1437.980661278732	701.121169529510	1046.153385631661	1493.300233862346	521.953401094824	1087.624849197975	940.152321679052	661.087235721828	1057.704785133497	963.515789676833	387.914664745829	1140.197667984799	746.813911277014	630.524310211381	1069.134517140563	634.676088937501	694.005124742741	1147.036634562242	587.332425078745	610.492636403842	1155.200104328967	497.824434526588	617.479555553673	1097.607815673986	745.430106849348	400.179519498773	1006.068927817950	635.610690232435	333.760777839294	1094.845641352101	546.311080591390	382.305781719213	1084.207671329301	459.630299162986	374.812878238277	1010.393571182163	406.652656683220	371.215865026347	865.237499306738	376.650932985220	327.280771806746	843.458431058134	247.939338916742	380.108971146669	1129.066214691821	408.681503214432	626.702224995266	1063.818851817490	302.968093885813	690.775728602764	1106.752343479358	209.210451232548	627.126862275299	977.144877246457	43.410856578802	602.625878242472	1148.815171279709	97.879147415344	631.537026232693	1062.954087740493	37.288704842489	674.170164461492	1270.681284200530	44.962210909126	654.969098528151	649.243303203972	207.559975780937	420.259820934966	697.492015163867	145.312152651749	346.008193690705	802.569462820953	139.787613317628	364.787885678476	862.892159538699	30.245261962377	352.086955689502	993.067470507899	1094.580521398923	237.665398865306	1221.211664046369	972.506164055163	238.886107321563	989.440409856754	1110.707286091870	845.051884956109	1086.058601729337	871.649017029270	799.006520189074	
92	49.963500000000	854.308498355262	1008.198566173244	561.757150793548	1036.079783068966	1438.376697098888	374.340146682068	1144.697602013016	1360.960351778475	527.334146025421	1071.769037352229	1437.937385270436	704.079803549476	1046.128151398416	1493.983053854146	525.313112150431	1087.676995083643	940.791908514888	662.788673866117	1056.436633467874	963.775106928247	389.909323836409	1137.852487242373	746.231653501701	633.505550109765	1064.933952406168	634.990921436369	696.443513526527	1142.503053965764	586.771317348470	613.234376734757	1149.205004759304	497.443806387437	620.087669985238	1102.191811277203	749.185162899853	402.859370698981	1015.832749813310	637.088562162027	334.694188411251	1107.014639608348	550.023562925798	383.954591391343	1097.967600222754	462.211801345565	375.682892464747	1022.986230832708	408.912923175041	372.144392693754	876.931880274804	382.629435921080	328.411636883091	851.889122648637	254.681857100054	381.479914333176	1122.926150130424	408.495125855539	628.812725775451	1056.954706656577	302.823996749396	692.114334769415	1099.842011935966	209.148698952397	628.293995016752	969.492298671395	43.571054835193	602.838756768933	1141.349546341934	97.806592487238	631.900015943602	1055.296338850698	37.299953588617	674.355754782392	1263.109401260881	44.333486287622	655.200383524562	657.407904267049	221.627985301299	422.711058937874	702.467609607397	157.720789352967	347.642071118602	807.643040355635	147.462510222396	365.655966606083	862.451451329974	31.346189175469	351.182906158027	988.964138399337	1094.895337492719	242.810803520248	1208.819619119541	956.853492164353	243.392908426898	1000.837502114851	1108.931589666043	849.677158819877	1111.292103621817	877.281780173005	798.466042567447	
